<?xml version="1.0" encoding="UTF-8"?>
<svg id="Layer_1" xmlns="http://www.w3.org/2000/svg" version="1.1" viewBox="0 0 174 60">
  <!-- Generator: Adobe Illustrator 30.1.0, SVG Export Plug-In . SVG Version: 2.1.1 Build 136)  -->
  <defs>
    <style>
      .st0 {
        fill: #067c4b;
      }
    </style>
  </defs>
  <path class="st0" d="M21.1,17.65l2.32-7.5c.43-1.38,1.09-4.01,1.09-4.01h.07s.62,2.63,1.05,4.01l2.32,7.5s-6.86,0-6.86,0ZM17.2,48.65h-6.84l2.32-7.5c.43-1.38,1.09-4.01,1.09-4.01h.07s.61,2.63,1.05,4.01l2.32,7.5h-.01ZM27.3,1.21h-5.44L4.66,50.86l-2.54,7.36h5.32l1.7-5.53h9.35l1.73,5.53h5.47l-9.12-26.03,3.32-10.5h9.35l1.73,5.53h5.47L27.34,1.19h-.02v.02Z"/>
  <path d="M43.87,11.52h.12c1.13-2.12,2.39-3.21,4.57-3.21.54,0,.88.04,1.16.14v4.34h-.12c-3.23-.33-5.56,1.38-5.56,5.32v9.11h-4.93V8.51h4.75v2.99h-.01l.02.02Z"/>
  <path d="M57.01,11.52h.12c1.13-2.12,2.39-3.21,4.57-3.21.54,0,.88.04,1.16.14v4.34h-.12c-3.23-.33-5.56,1.38-5.56,5.32v9.11h-4.93V8.51h4.75v2.99h-.01l.02.02Z"/>
  <path d="M77.98,17.91c0-3.65-1.71-6.12-4.71-6.12s-4.71,2.48-4.71,6.12,1.68,6.08,4.71,6.08,4.71-2.45,4.71-6.08M63.55,17.91c0-5.58,3.95-9.87,9.72-9.87s9.72,4.3,9.72,9.87-3.95,9.87-9.72,9.87-9.72-4.3-9.72-9.87"/>
  <path d="M83.28,8.53h4.89l2.25,8.68c.41,1.54.83,3.49.83,3.49h.07s.4-2,.8-3.54l2.32-8.64h4.21l2.44,8.64c.41,1.57.88,3.54.88,3.54h.07s.43-1.97.83-3.49l2.36-8.68h4.79l-5.56,18.71h-4.5l-2.47-9.19c-.41-1.5-.83-3.25-.83-3.25h-.07s-.47,1.75-.88,3.25l-2.53,9.19h-4.47l-5.44-18.71h-.01.02Z"/>
  <path d="M39.23,49c0-3.57-1.16-5.98-4.32-5.98-2.72,0-4.09,2.4-4.09,5.87s1.42,5.73,3.95,5.73c2.94,0,4.47-2.19,4.47-5.61M25.81,48.9c0-5.83,3.29-9.87,7.95-9.87,2.61,0,4.24,1.21,5.26,2.78h.12v-9.62h4.93v26.07h-4.75v-2.45h-.07c-1.09,1.78-2.94,2.99-5.56,2.99-4.68,0-7.86-3.83-7.86-9.88"/>
  <path d="M45.73,39.53h5l2.98,9.69c.54,1.78.83,2.99.83,2.99h.07s.26-1.21.8-2.99l3.04-9.69h4.93l-6.49,18.71h-4.71l-6.46-18.71h.01Z"/>
  <path d="M78.05,48.9c0-3.65-1.71-6.12-4.71-6.12s-4.71,2.48-4.71,6.12,1.68,6.08,4.71,6.08,4.71-2.45,4.71-6.08M63.6,48.9c0-5.58,3.95-9.87,9.72-9.87s9.72,4.3,9.72,9.87-3.95,9.88-9.72,9.88-9.72-4.3-9.72-9.88"/>
  <path d="M84.43,48.9c0-5.58,3.62-9.87,9.28-9.87,4.83,0,7.79,2.8,8.45,6.86h-4.83c-.33-1.65-1.59-2.87-3.41-2.87-2.98,0-4.5,2.3-4.5,5.91s1.42,5.91,4.42,5.91c1.99,0,3.41-1.05,3.74-3.16h4.75c-.33,3.96-3.41,7.15-8.38,7.15-5.88,0-9.54-4.3-9.54-9.88"/>
  <path d="M116.03,51.63v-2.8c-.88.5-2.22.8-3.45,1.09-2.57.59-3.84,1.16-3.84,2.92s1.16,2.37,2.91,2.37c2.82,0,4.38-1.75,4.38-3.57M115.99,56.15h-.07c-.94,1.42-2.29,2.52-5.47,2.52-3.81,0-6.49-2-6.49-5.73,0-4.11,3.33-5.44,7.48-6.02,3.08-.45,4.5-.69,4.5-2.12,0-1.35-1.05-2.22-3.12-2.22-2.32,0-3.45.83-3.59,2.63h-4.38c.14-3.28,2.57-6.15,8.02-6.15s7.83,2.51,7.83,6.89v9.52c0,1.42.21,2.25.64,2.59v.18h-4.75c-.29-.36-.47-1.24-.59-2.07"/>
  <path d="M122.33,39.53h2.57v-5.83h4.83v5.83h3.19v3.28h-3.19v9.9c0,1.38.76,1.86,1.85,1.86.62,0,1.44-.04,1.44-.04v3.65s-1.13.07-3.08.07c-2.39,0-5.04-.95-5.04-4.49v-10.97h-2.57v-3.28h0Z"/>
  <path d="M139.3,46.85h8.27c-.14-2.37-1.71-4.01-3.95-4.01-2.61,0-3.88,1.57-4.32,4.01M134.37,48.85c0-5.53,3.74-9.85,9.18-9.85,5.98,0,9.18,4.58,9.18,11.26h-13.49c.36,2.87,1.96,4.66,4.75,4.66,1.92,0,3.04-.88,3.59-2.3h4.86c-.68,3.32-3.62,6.12-8.42,6.12-6.18,0-9.65-4.34-9.65-9.9"/>
  <path d="M159.84,42.08h.12c1.27-2,2.98-3.07,5.51-3.07,3.84,0,6.42,2.92,6.42,7v12.21h-4.93v-11.49c0-2-1.16-3.42-3.23-3.42-2.18,0-3.77,1.75-3.77,4.3v10.61h-4.93v-18.69h4.83v2.54h-.01.01Z"/>
</svg>