<?xml version="1.0" encoding="UTF-8"?>
<svg id="Layer_1" data-name="Layer 1" xmlns="http://www.w3.org/2000/svg" viewBox="0 0 1072 900">
  <defs>
    <style>
      .cls-1 {
        fill: #2c2c2c;
      }
    </style>
  </defs>
  <g>
    <path class="cls-1" d="M973.7,258.45c4.99,28.22-4.47,57.01-24.06,77.46-19.45,20.3-47.62,30.72-76.31,27.25-4.39-28.66,4.71-56.77,24.14-77.06,19.17-20.02,46.38-30.62,76.23-27.65Z"/>
    <path class="cls-1" d="M303.26,533.26c-18.03,22.44-45.79,34.56-74.28,33.43-27.79-1.1-54.22-14.92-70.88-38.69,18.58-22.45,45.58-34.34,74.1-33.27,27.39,1.02,53.67,14.3,71.06,38.53Z"/>
    <path class="cls-1" d="M200.65,363.04c-28.36,3.77-56.5-6.78-75.83-26.56-19.93-20.4-29.29-48.68-24.92-77.81,28.32-3.39,56.08,6.63,75.54,26.42,19.82,20.16,29.44,48.1,25.21,77.96Z"/>
    <path class="cls-1" d="M393.9,577.45c-6.52,25.9-28.3,47.37-50.3,56.62-29.45,12.38-60.76,9.26-85.6-7.09,7.16-26.25,28.43-47.37,50.87-56.65,28.76-11.89,59.15-9.38,85.03,7.13Z"/>
    <path class="cls-1" d="M915.8,527.88c-16.52,23.9-43.13,37.67-70.8,38.81s-56.13-10.97-74.36-33.33c16.53-23.39,42.37-37.08,69.21-38.52,29.06-1.57,56.44,9.92,75.95,33.04Z"/>
    <path class="cls-1" d="M970.89,398.66c-5.37,26.82-24.5,49.25-46.28,60.4-28.29,14.48-60.07,13.71-85.79-.85,5.24-26.89,25.15-49.43,46.54-60.22,28.17-14.21,57.81-13.35,85.52.67Z"/>
    <path class="cls-1" d="M235.11,458.06c-25.3,14.73-57.05,15.43-85.15,1.35-21.69-10.87-41.63-33.53-46.84-60.39,25.31-14.24,56.1-15.24,83.91-1.8,22.05,10.66,42.19,32.79,48.08,60.83Z"/>
    <path class="cls-1" d="M815.88,626.86c-24.31,16.41-55.85,19.45-84.83,7.53-22.73-9.35-43.16-29.84-51.45-56.79,25.01-15.78,54.8-19.54,84.18-7.8,22.53,9,44.52,29.88,52.1,57.06Z"/>
    <path class="cls-1" d="M201.06,261.8c-23.93-5.57-43.52-24.33-52.44-43.74-11.94-26-10.16-54.15,3.78-77.02,23.86,5.53,43.73,24.29,52.73,44.25,11.54,25.59,10.03,53.53-4.07,76.51Z"/>
    <path class="cls-1" d="M922.54,142.35c12.77,23.71,14.61,50.23,2.44,76.31-8.99,19.26-28.85,37.94-52.23,43.09-13.74-22.48-15.38-49.79-4.68-75.15,8.4-19.91,27.59-37.93,50.33-44.98,1.19-.37,3.57-.34,4.15.74Z"/>
    <path class="cls-1" d="M837.33,177.96c-18.56-13.9-28.85-35.25-29.05-57.55-.2-22.79,10.07-44.42,28.74-58.71,18.47,13.97,28.82,35.43,28.95,57.81s-9.95,43.96-28.64,58.46Z"/>
    <path class="cls-1" d="M237.19,177.68c-18.74-13.9-28.89-35.73-28.87-58.15.01-22.43,10.27-43.89,28.92-58.1,18.26,13.82,28.51,35.09,28.76,57.1s-9.61,44.14-28.81,59.14Z"/>
  </g>
  <g>
    <path class="cls-1" d="M364.71,36.76c2.76,1.13,5.47,2.7,8.17,4.78.75.57,1.38.88,1.88.88,1.32,0,2.2-2.01,2.58-5.97h2.26c-.25,4.52-.38,12.5-.38,24h-2.26c-.57-4.9-1.38-8.61-2.39-11.18-1.01-2.58-2.7-4.84-5.09-6.72-1.63-1.57-3.58-2.76-5.78-3.64-2.2-.82-4.46-1.26-6.85-1.26-6.66,0-11.62,3.27-14.89,9.8-3.27,6.53-4.84,14.64-4.84,24.38s1.7,17.72,5.09,24.19c3.39,6.47,8.42,9.74,15.08,9.74,2.26,0,4.46-.44,6.72-1.26,2.2-.82,4.08-2.01,5.59-3.64,2.45-1.82,4.15-4.15,5.09-6.97.94-2.76,1.7-6.85,2.26-12.19h2.26c0,12,.13,20.29.38,25.01h-2.26c-.19-2.14-.5-3.64-.82-4.52-.38-.88-.88-1.32-1.51-1.32-.5,0-1.19.25-2.07.82-2.95,2.14-5.84,3.71-8.55,4.84-2.7,1.07-5.97,1.63-9.8,1.63-7.04,0-13.13-1.45-18.41-4.27s-9.36-6.97-12.25-12.38c-2.89-5.4-4.34-11.81-4.34-19.29s1.51-13.7,4.46-19.35c2.95-5.59,7.1-9.99,12.44-13.07,5.34-3.08,11.37-4.65,18.22-4.65,3.83-.06,7.23.5,9.99,1.63h0Z"/>
    <path class="cls-1" d="M403.1,63.21c2.95-6.16,8.36-9.24,16.15-9.24,5.15,0,8.8,1.32,10.93,3.9,1.13,1.26,1.95,2.89,2.45,4.9.5,2.01.75,4.65.75,7.98v26.7c0,2.7.44,4.59,1.38,5.59.94,1.01,2.58,1.51,4.96,1.51v2.07c-6.91-.25-19.67-.25-26.01,0v-2.07c2.01,0,3.39-.5,4.15-1.51.82-1.01,1.19-2.89,1.19-5.59v-30.85c0-2.7-.44-4.78-1.32-6.16-.88-1.38-2.51-2.07-4.84-2.07-2.76,0-5.09,1.07-6.97,3.2-1.88,2.14-2.83,4.9-2.83,8.17v27.71c0,2.7.38,4.59,1.19,5.59.82,1.01,2.2,1.51,4.15,1.51v2.07c-6.35-.25-19.1-.25-26.01,0v-2.07c2.32,0,3.96-.5,4.9-1.51.94-1.01,1.45-2.89,1.45-5.59v-56.49c0-3.02-.5-5.28-1.45-6.66-.94-1.38-2.58-2.07-4.9-2.07v-2.07c2.14.19,4.15.31,6.16.31,5.78,0,10.56-.44,14.51-1.38v34.12h0Z"/>
    <path class="cls-1" d="M569.61,103.05c.94,1.01,2.58,1.51,4.9,1.51v2.07c-6.6-.25-19.04-.25-25.38,0v-2.07c1.76,0,3.02-.5,3.71-1.51.69-1.01,1.07-2.89,1.07-5.65v-30.79c0-2.76-.44-4.84-1.26-6.22-.82-1.38-2.39-2.01-4.71-2.01-2.45,0-4.59,1.01-6.41,3.08-1.82,2.07-2.89,4.59-3.2,7.54v28.46c0,2.7.44,4.59,1.26,5.59.82,1.01,2.32,1.51,4.52,1.51v2.07c-6.35-.25-18.47-.25-24.82,0v-2.07c1.76,0,3.02-.5,3.71-1.51.69-1.01,1.07-2.89,1.07-5.59v-30.85c0-2.76-.38-4.84-1.07-6.22-.75-1.38-2.14-2.01-4.27-2.01-2.64,0-4.9,1.13-6.79,3.33s-2.83,4.96-2.83,8.17v27.58c0,2.7.38,4.59,1.07,5.59.69,1.01,1.95,1.51,3.71,1.51v2.07c-5.84-.25-18.28-.25-25.38,0v-2.07c2.39,0,4.02-.5,4.96-1.51.94-1.01,1.38-2.89,1.38-5.59v-31.23c0-3.02-.44-5.28-1.38-6.66s-2.58-2.07-4.96-2.07v-2.07c2.14.19,4.15.31,6.16.31,5.91,0,10.74-.44,14.51-1.38v8.92c2.89-6.16,8.04-9.24,15.39-9.24,5.03,0,8.67,1.32,10.93,3.9,1.26,1.32,2.07,3.33,2.45,5.97,1.7-3.58,3.96-6.09,6.72-7.6,2.76-1.51,6.03-2.26,9.74-2.26,5.03,0,8.67,1.32,10.93,3.9,1.07,1.19,1.82,2.83,2.26,4.84.44,2.07.69,4.71.69,8.04v26.7c-.13,2.64.31,4.52,1.32,5.53h0Z"/>
    <path class="cls-1" d="M620.25,60.57c3.33,4.4,4.96,10.74,4.96,19.1,0,9.74-2.14,16.9-6.35,21.49-4.21,4.59-9.68,6.91-16.4,6.91-4.59,0-8.29-1.13-11.12-3.46-2.39-.19-4.78.06-7.16.82-2.39.75-4.27,1.7-5.65,2.89l-1.51-.88c.44-1.63.69-3.52.69-5.53v-60.95c0-3.02-.5-5.28-1.45-6.66-.94-1.38-2.58-2.07-4.9-2.07v-2.07c2.07.19,4.08.31,6.16.31,5.78,0,10.56-.44,14.51-1.38v34.31c1.38-3.02,3.39-5.4,6.03-6.97,2.64-1.63,5.72-2.45,9.11-2.45,5.4,0,9.74,2.2,13.07,6.6h0ZM607.49,99.84c1.76-4.08,2.7-10.37,2.7-18.72s-.75-13.95-2.26-17.53c-1.51-3.52-3.71-5.28-6.53-5.28-2.14,0-4.08.75-5.78,2.32-1.76,1.57-2.95,3.64-3.52,6.28v36.44c2.2,1.76,4.65,2.7,7.35,2.7,3.58-.06,6.28-2.14,8.04-6.22Z"/>
    <path class="cls-1" d="M670.26,91.99l1.76.57c-1.32,4.27-3.71,7.98-7.1,11-3.39,3.02-7.67,4.52-12.75,4.52-7.04,0-12.57-2.26-16.71-6.72-4.15-4.46-6.22-11.06-6.22-19.79s2.2-15.77,6.66-20.48,10.3-7.1,17.66-7.1c12.44,0,18.66,7.35,18.66,22.05h-27.9c-.06,1.01-.13,2.58-.13,4.65,0,4.34.63,7.98,1.82,10.93,1.19,2.89,2.83,5.03,4.78,6.35,1.95,1.32,4.02,2.01,6.28,2.01,5.53,0,9.86-2.7,13.19-7.98h0ZM647.08,60.51c-1.57,2.95-2.51,7.48-2.95,13.63h15.58c.13-5.21-.38-9.55-1.51-12.94-1.13-3.39-2.89-5.09-5.22-5.09s-4.34,1.45-5.91,4.4h0Z"/>
    <path class="cls-1" d="M713.68,56.68c1.51,1.76,2.26,3.96,2.26,6.47s-.69,4.46-2.14,6.03c-1.45,1.57-3.27,2.32-5.59,2.32s-4.02-.57-5.34-1.76c-1.32-1.13-2.01-2.7-2.01-4.59,0-3.2,1.45-5.78,4.34-7.73-.25-.06-.69-.13-1.19-.13-.69,0-1.19.06-1.57.19-2.51.38-4.65,1.95-6.41,4.59-1.76,2.64-2.64,5.34-2.64,8.17v26.33c0,3.02.75,5.15,2.26,6.35s3.83,1.76,7.1,1.76v2.07c-.94,0-1.7-.06-2.26-.13-6.72-.19-19.35-.19-25.7,0-.5.06-1.19.13-2.01.13v-2.07c2.39,0,4.02-.5,4.96-1.51s1.38-2.89,1.38-5.59v-31.35c0-3.02-.44-5.28-1.38-6.66s-2.58-2.07-4.96-2.07v-2.07c2.14.19,4.15.31,6.16.31,5.91,0,10.74-.44,14.51-1.38v9.24c1.26-2.83,3.08-5.15,5.47-6.91,2.39-1.76,5.09-2.64,8.04-2.64,2.95-.06,5.21.88,6.72,2.64h0Z"/>
    <path class="cls-1" d="M741.14,54.92c2.14.63,3.71,1.32,4.84,2.14.69.44,1.26.69,1.76.69.57,0,1.13-.31,1.51-.94.44-.63.69-1.51.82-2.7h2.07c-.25,3.39-.38,9.17-.38,17.47h-2.07c-.57-4.34-1.88-8.04-3.9-11-2.01-2.95-4.96-4.4-8.8-4.4-2.01,0-3.64.57-4.9,1.7-1.32,1.13-1.95,2.7-1.95,4.65,0,2.26.75,4.21,2.26,5.78,1.51,1.63,3.9,3.58,7.16,5.91l2.89,2.07c4.02,3.02,7.04,5.78,8.92,8.17,1.95,2.39,2.89,5.34,2.89,8.92,0,2.89-.82,5.47-2.51,7.73-1.7,2.26-3.96,3.96-6.79,5.15-2.83,1.19-5.97,1.76-9.42,1.76-3.64,0-6.72-.69-9.3-2.07-2.14-1.07-3.64-1.76-4.59-2.07-.69-.19-1.26,0-1.76.63-.5.63-.88,1.57-1.13,2.83h-2.07c.25-3.77.38-10.37.38-19.85h2.07c1.32,12.19,5.78,18.28,13.38,18.28,1.95,0,3.58-.57,4.9-1.76,1.38-1.13,2.01-2.95,2.01-5.28,0-1.82-.44-3.52-1.26-4.96-.82-1.45-1.88-2.76-3.14-3.9-1.26-1.13-3.14-2.7-5.65-4.65-2.95-2.39-5.21-4.27-6.79-5.78-1.57-1.45-2.89-3.2-3.96-5.15-1.07-1.95-1.63-4.21-1.63-6.66,0-4.21,1.63-7.6,4.96-10.05,3.33-2.45,7.35-3.64,12.13-3.64,2.64.06,4.9.38,7.04,1.01h0Z"/>
    <path class="cls-1" d="M486.54,102.73c-1.01.69-1.88,1.01-2.64,1.01-.88,0-1.45-.31-1.76-1.01-.31-.69-.44-1.76-.44-3.39v-27.02c0-3.64-.25-6.53-.75-8.61-.5-2.14-1.45-3.9-2.95-5.34-1.57-1.57-3.58-2.7-5.97-3.39-2.39-.69-5.21-1.01-8.42-1.01s-5.97.31-8.61.88c-2.64.57-4.84,1.45-6.6,2.45-1.82,1.13-3.2,2.32-4.15,3.64-.88,1.32-1.32,2.89-1.32,4.71,0,2.2.63,4.02,1.88,5.47,1.26,1.45,3.02,2.2,5.34,2.2,2.2,0,4.02-.69,5.53-2.01,1.51-1.32,2.26-3.08,2.26-5.34,0-1.76-.5-3.33-1.51-4.65-1.01-1.32-2.45-2.32-4.34-2.95,1.63-1.57,4.08-2.39,7.23-2.39,2.7,0,4.71.75,6.03,2.32s1.95,3.71,1.95,6.47v7.73c0,1.76-.82,3.2-2.51,4.21-1.7,1.01-4.34,2.14-7.98,3.39-3.46,1.19-6.28,2.32-8.48,3.39s-4.08,2.58-5.65,4.52c-1.57,1.95-2.32,4.4-2.32,7.41,0,3.58,1.07,6.47,3.14,8.61s5.21,3.27,9.49,3.27c6.41,0,11.25-2.7,14.58-8.04.06,2.45.82,4.4,2.26,5.84,1.45,1.45,4.02,2.2,7.67,2.2,3.9,0,7.23-1.01,9.99-2.95l-.94-1.63h0ZM467.38,96.95c-1.95,2.7-4.15,4.08-6.72,4.08-1.82,0-3.33-.63-4.46-1.95-1.13-1.32-1.7-3.27-1.7-6.03,0-3.08.69-5.47,2.01-7.16,1.32-1.63,3.27-3.33,5.84-4.96,2.58-1.57,4.27-3.02,5.09-4.34v20.36h-.06Z"/>
  </g>
  <g>
    <path class="cls-1" d="M396.42,143.31c7.75,0,13.42,4.28,13.42,11.78,0,5.92-2.58,9.89-7.81,11.4v.13c4.47.88,6.55,3.53,6.87,11.78.19,5.29.94,7.87,2.52,9.89h-6.68c-.76-1.01-.82-1.76-1.07-3.46l-.25-4.91c-.06-2.33-.57-4.72-1.51-7.12s-2.96-3.65-6.11-3.72h-14.8v19.21h-5.98v-44.97h21.42ZM393.78,164.03c6.61,0,10.08-2.52,10.08-8,0-4.85-2.83-7.68-7.75-7.68h-15.12v15.68h12.79Z"/>
    <path class="cls-1" d="M436.98,143.31l17.57,44.97h-6.61l-4.91-13.54h-19.02l-5.04,13.54h-6.17l17.57-44.97h6.61ZM433.52,148.72l-7.62,20.98h15.24l-7.5-20.98h-.13Z"/>
    <path class="cls-1" d="M465.26,143.31l23.68,36.47h.13v-36.47h5.67v44.97h-6.55l-23.49-36.09h-.13v36.09h-5.67v-44.97h6.36Z"/>
    <path class="cls-1" d="M510.42,143.31v22.42l22.8-22.42h7.75l-18.96,18.14,19.72,26.83h-7.56l-16.25-22.74-7.5,6.99v15.75h-5.98v-44.97h5.98Z"/>
    <path class="cls-1" d="M577.5,143.31v5.04h-25.07v14.3h23.37v5.04h-23.37v15.56h25.26v5.04h-31.24v-44.97h31.05Z"/>
    <path class="cls-1" d="M600.74,143.31c13.54,0,21.23,7.31,21.23,21.42,0,15.87-7.5,23.56-21.23,23.56h-15.81v-44.97h15.81ZM601.05,183.24c8.94,0,14.93-5.79,14.93-17.7s-4.98-17.2-14.68-17.2h-10.39v34.9h10.14Z"/>
    <path class="cls-1" d="M653.01,143.31v44.97h-5.98v-44.97h5.98Z"/>
    <path class="cls-1" d="M669.39,143.31l23.68,36.47h.13v-36.47h5.67v44.97h-6.55l-23.49-36.09h-.13v36.09h-5.67v-44.97h6.36Z"/>
  </g>
  <g>
    <path class="cls-1" d="M472.21,609.43c0,5.21-1.63,9.98-4.67,14.43-3.15,4.34-8.9,9.12-17.15,14.33-10.85,6.84-14,10.2-15.3,14.32h37.01v11.07h-51.87c0-11.72,5.54-21.27,17.36-29.19,3.91-2.6,7.81-5.32,11.5-8.03,7.38-5.43,10.74-10.85,10.74-16.6,0-8.46-4.78-13.35-12.81-13.35s-12.59,5.75-13.02,18.99h-12.37c.33-18.45,10.42-29.3,26.15-29.3s24.42,9.77,24.42,23.33Z"/>
    <path class="cls-1" d="M532.76,625.6c0,24.96-9.01,39.5-26.26,39.5s-26.26-14.43-26.26-39.5,8.9-39.5,26.26-39.5,26.26,14.43,26.26,39.5ZM506.5,654.79c9.22,0,13.89-9.22,13.89-29.19s-4.88-29.19-14-29.19-13.78,9.88-13.78,29.19,4.77,29.19,13.89,29.19Z"/>
    <path class="cls-1" d="M592.88,609.43c0,5.21-1.63,9.98-4.67,14.43-3.15,4.34-8.9,9.12-17.15,14.33-10.85,6.84-14,10.2-15.3,14.32h37v11.07h-51.87c0-11.72,5.54-21.27,17.36-29.19,3.91-2.6,7.81-5.32,11.5-8.03,7.38-5.43,10.74-10.85,10.74-16.6,0-8.46-4.78-13.35-12.81-13.35s-12.59,5.75-13.02,18.99h-12.37c.33-18.45,10.42-29.3,26.15-29.3s24.42,9.77,24.42,23.33Z"/>
    <path class="cls-1" d="M652.23,606.83h-12.37c-.54-6.29-4.67-10.42-11.07-10.42-13.46,0-14.98,16.06-15.74,26.04l.22.22c3.36-5.97,9.66-9.01,16.39-9.01,14.87,0,23.98,11.18,23.98,25.5,0,15.08-10.42,25.94-25.29,25.94-23.66,0-27.67-19.97-27.67-39.61,0-18.01,7.16-39.39,28.65-39.39,11.94,0,22.46,8.57,22.9,20.73ZM627.92,654.79c8.9,0,13.35-7.81,13.35-15.84s-4.56-15.52-13.46-15.52-13.56,7.38-13.56,15.52,4.77,15.84,13.67,15.84Z"/>
  </g>
  <g>
    <path class="cls-1" d="M396.92,322.69v13.94h-50.22v24.14h46.48v13.17h-46.48v26.98h51.13v13.94h-67.26v-92.18h66.36Z"/>
    <path class="cls-1" d="M424.55,348.12v41.44c0,9.94,3.74,15.49,12.78,15.49,10.97,0,16.4-6.58,16.4-17.69v-39.25h14.72v66.75h-14.46v-9.3h-.26c-3.87,6.84-11.49,11.1-19.11,11.1-17.04,0-24.79-8.65-24.79-25.56v-42.99h14.72Z"/>
    <path class="cls-1" d="M523.06,346.7v14.2c-2.19-.39-4.26-.65-6.33-.65-10.97,0-18.07,9.55-18.07,22.33v32.28h-14.72v-66.75h13.81v12.91h.26c2.07-8.52,12.01-14.72,19.49-14.72,2.84,0,3.36,0,5.55.39Z"/>
    <path class="cls-1" d="M591.35,381.43c0,20.79-12.78,35.25-33.7,35.25s-33.7-14.33-33.7-35.25,12.78-35.12,33.7-35.12,33.7,14.72,33.7,35.12ZM557.66,405.06c13.04,0,18.98-12.01,18.98-23.63s-5.81-23.5-19.11-23.5-18.85,11.75-18.85,23.5,5.94,23.63,18.98,23.63Z"/>
    <path class="cls-1" d="M670.11,381.82c0,17.56-8.78,34.86-28.79,34.86-8.39,0-17.82-2.97-22.34-10.46h-.26v33.31h-14.72v-91.41h13.94v9.04h.26c4.26-7.75,12.14-10.84,20.66-10.84,20.92,0,31.24,16.01,31.24,35.5ZM636.93,405.06c13.3,0,18.46-11.88,18.46-23.5s-5.55-23.63-18.59-23.63c-13.68,0-18.59,11.62-18.59,23.63s5.68,23.5,18.72,23.5Z"/>
    <path class="cls-1" d="M743.31,380.27c0,1.68-.13,3.36-.26,5.04h-49.06c0,10.97,6.33,19.75,17.95,19.75,8.13,0,13.56-3.36,16.27-11.1h13.94c-2.97,14.33-15.62,22.72-30.21,22.72-21.04,0-32.66-14.72-32.66-34.99s12.39-35.38,32.28-35.38c18.85,0,31.76,15.49,31.76,33.95ZM728.33,375.62c-.77-9.3-6.84-17.69-16.91-17.69s-16.91,7.88-17.43,17.69h34.34Z"/>
  </g>
  <g>
    <path class="cls-1" d="M340.53,738.47l20.8,54.01h-10.13l-5.07-14.3h-21.56l-5.07,14.3h-9.76l20.72-54.01h10.06ZM335.31,747.78l-8.17,23.22h16.49l-8.09-23.22h-.23Z"/>
    <path class="cls-1" d="M399.6,765.33v27.15h-8.62v-24.43c0-4.99-1.74-8.93-7.64-8.93s-9.46,4.99-9.46,10.06v23.3h-8.62v-39.1h8.17v5.75l.15.15c2.8-4.54,7.26-6.96,12.25-6.96,9,0,13.77,5.14,13.77,13.01Z"/>
    <path class="cls-1" d="M417.52,738.47v8.17h-8.62v-8.17h8.62ZM417.52,753.38v39.1h-8.62v-39.1h8.62Z"/>
    <path class="cls-1" d="M438.09,741.65v11.72h7.79v6.43h-7.79v21.33c0,4.08.98,4.92,4.31,4.92,1.59,0,3.18-.15,3.48-.3v6.66c-3.4.38-4.39.45-5.6.45-8.24,0-10.82-2.65-10.82-10.51v-22.54h-6.5v-6.43h6.5v-11.72h8.62Z"/>
    <path class="cls-1" d="M484.83,763.44v20.57c0,2.04.45,2.72,2.34,2.72.46,0,1.21,0,1.82-.15v5.97c-2.19.61-4.46.98-5.45.98-3.78,0-6.05-1.51-6.66-4.76-3.1,3.1-8.78,4.76-13.54,4.76-7.72,0-13.39-4.24-13.39-11.42s4.31-10.21,10.13-11.42c2.95-.61,6.2-.98,9.83-1.44,5.22-.61,6.81-1.82,6.81-4.84,0-3.4-2.72-5.29-8.09-5.29s-8.24,2.27-8.62,6.2h-8.62c.61-8.55,6.81-13.01,17.78-13.01,9.45,0,15.66,4.46,15.66,11.12ZM466,786.73c5.9,0,10.21-2.95,10.21-7.19v-6.66c-2.34,1.44-3.48,1.44-9.46,2.19-5.67.68-8.17,2.72-8.17,6.28,0,3.25,2.72,5.37,7.41,5.37Z"/>
    <path class="cls-1" d="M525.98,738.47l24.66,39.79h.15v-39.79h9v54.01h-9.98l-24.58-39.71h-.23v39.71h-9v-54.01h9.98Z"/>
    <path class="cls-1" d="M578.62,738.47v8.17h-8.62v-8.17h8.62ZM578.62,753.38v39.1h-8.62v-39.1h8.62Z"/>
    <path class="cls-1" d="M596.85,753.38v42.74c0,8.02-3.55,11.88-11.27,11.88-1.44,0-2.42,0-3.78-.3v-6.81c1.21.23,2.19.3,2.95.3,2.42,0,3.48-.98,3.48-5.29v-42.51h8.62ZM596.85,738.47v8.17h-8.62v-8.17h8.62Z"/>
    <path class="cls-1" d="M615.07,738.47v19.97h.15c2.5-3.78,7.11-6.13,11.65-6.13,12.18,0,18.3,9,18.3,20.8,0,10.51-5.22,20.42-16.87,20.42-5.37,0-10.74-1.36-13.54-6.43h-.15v5.37h-8.17v-54.01h8.62ZM625.74,786.73c7.79,0,10.82-6.96,10.82-13.77s-3.4-13.84-10.89-13.84c-8.02,0-10.89,6.81-10.89,13.84s3.33,13.77,10.97,13.77Z"/>
    <path class="cls-1" d="M690.1,772.89c0,12.18-7.49,20.65-19.74,20.65s-19.74-8.4-19.74-20.65,7.49-20.57,19.74-20.57,19.74,8.62,19.74,20.57ZM670.36,786.73c7.64,0,11.12-7.04,11.12-13.84s-3.4-13.77-11.2-13.77-11.04,6.88-11.04,13.77,3.48,13.84,11.12,13.84Z"/>
    <path class="cls-1" d="M732.91,772.21c0,.98-.08,1.97-.15,2.95h-28.74c0,6.43,3.71,11.57,10.51,11.57,4.76,0,7.94-1.97,9.53-6.5h8.17c-1.74,8.4-9.15,13.31-17.7,13.31-12.33,0-19.14-8.62-19.14-20.5s7.26-20.73,18.91-20.73c11.04,0,18.61,9.08,18.61,19.89ZM724.14,769.49c-.46-5.45-4.01-10.36-9.91-10.36s-9.91,4.61-10.21,10.36h20.12Z"/>
    <path class="cls-1" d="M762.26,752.54v8.32c-1.29-.23-2.5-.38-3.71-.38-6.43,0-10.59,5.6-10.59,13.09v18.91h-8.62v-39.1h8.09v7.56h.15c1.21-4.99,7.04-8.62,11.42-8.62,1.66,0,1.97,0,3.25.23Z"/>
  </g>
</svg>