<?xml version="1.0" encoding="UTF-8"?>
<svg id="Laag_1" xmlns="http://www.w3.org/2000/svg" version="1.1" viewBox="0 0 174.34 72.27">
  <!-- Generator: Adobe Illustrator 30.1.0, SVG Export Plug-In . SVG Version: 2.1.1 Build 136)  -->
  <defs>
    <style>
      .st0 {
        fill: none;
      }
    </style>
  </defs>
  <rect class="st0" x="-33.39" y="-13.08" width="241.12" height="102.05"/>
  <g>
    <g>
      <path d="M127.88,8.33c-2.33,0-4.23,1.9-4.23,4.23s1.9,4.23,4.23,4.23,4.23-1.9,4.23-4.23-1.9-4.23-4.23-4.23Z"/>
      <rect x="124.01" y="20.83" width="7.71" height="33.91" rx="1.23" ry="1.23"/>
      <path d="M31.83,12.21h-5.25c-.68,0-1.23.55-1.23,1.23v25.47c0,2.39-.94,4.63-2.66,6.31-1.71,1.68-3.97,2.57-6.37,2.51-4.75-.11-8.61-4.15-8.61-8.99V13.44c0-.68-.55-1.23-1.23-1.23H1.23c-.68,0-1.23.55-1.23,1.23v25.23c0,9.11,7.3,16.64,16.28,16.78h.26c4.36,0,8.47-1.68,11.59-4.76,3.18-3.14,4.94-7.32,4.94-11.77V13.45c0-.68-.55-1.23-1.23-1.23h-.01Z"/>
      <path d="M9.51,8.46c2.33,0,4.23-1.9,4.23-4.23S11.84,0,9.51,0s-4.23,1.9-4.23,4.23,1.9,4.23,4.23,4.23Z"/>
      <path d="M23.54,8.46c2.33,0,4.23-1.9,4.23-4.23s-1.9-4.23-4.23-4.23-4.23,1.9-4.23,4.23,1.9,4.23,4.23,4.23Z"/>
      <path d="M51.74,21.44c-6.69,2.37-11.18,8.81-11.18,16.01v32.68c0,.68.55,1.23,1.23,1.23h5.25c.68,0,1.23-.55,1.23-1.23v-32.78c0-3.35,2.56-7.25,5.59-8.53,1.4-.59,2.84-.88,4.24-.88,2.55,0,4.98.95,6.86,2.78,2.91,2.83,3.76,7.04,2.22,10.99-.91,2.32-2.78,4.19-5.14,5.13-2.3.91-4.72,1.02-6.93.31-.44-.14-.92-.03-1.25.29l-4.09,4.09c-.58.58-.44,1.56.29,1.94,4.29,2.23,9.22,2.57,14.08.94,5-1.68,8.96-5.7,10.58-10.74,2.17-6.74.53-13.61-4.39-18.39-4.93-4.78-11.88-6.22-18.59-3.84Z"/>
      <path d="M92.52,21.44c-6.69,2.37-11.18,8.81-11.18,16.01v32.68c0,.68.55,1.23,1.23,1.23h5.25c.68,0,1.23-.55,1.23-1.23v-32.78c0-3.35,2.56-7.25,5.6-8.53,1.4-.59,2.84-.88,4.24-.88,2.55,0,4.98.95,6.86,2.78,2.91,2.83,3.76,7.04,2.22,10.99-.91,2.32-2.78,4.19-5.14,5.13-2.3.91-4.72,1.02-6.93.31-.44-.14-.92-.03-1.25.29l-4.09,4.09c-.58.58-.44,1.56.29,1.94,4.29,2.23,9.22,2.57,14.08.94,5-1.68,8.96-5.7,10.58-10.74,2.17-6.74.53-13.61-4.39-18.39-4.93-4.78-11.88-6.22-18.59-3.84h-.01Z"/>
    </g>
    <path d="M140.04,59.88c2.29,7.33,9.06,12.39,16.72,12.39,9.62,0,17.49-7.9,17.54-17.6l.04-17.22c0-7.21-4.49-13.64-11.18-16.01-6.72-2.38-13.67-.94-18.59,3.84s-6.56,11.66-4.39,18.39c1.63,5.04,5.58,9.06,10.58,10.74,4.85,1.63,9.8,1.29,14.08-.94.72-.38.86-1.36.28-1.94l-4.09-4.09c-.32-.32-.78-.44-1.21-.31-2.22.72-4.65.62-6.97-.29-2.36-.94-4.23-2.81-5.14-5.13-1.54-3.95-.69-8.16,2.22-10.99,1.88-1.83,4.31-2.78,6.86-2.78,1.41,0,2.84.29,4.24.88,3.03,1.28,5.6,5.19,5.6,8.53l.02,17.25c-.02,5.52-4.45,10.02-9.88,10.02-3.74,0-7.13-2.14-8.81-5.5-.18-.36-.54-.61-.95-.61h-5.92c-.34,0-.66.16-.86.43-.2.26-.26.58-.19.89v.04h0Z"/>
  </g>
</svg>